<?xml version="1.0" encoding="utf-8" standalone="no"?>
<!DOCTYPE svg PUBLIC "-//W3C//DTD SVG 1.1//EN"
  "http://www.w3.org/Graphics/SVG/1.1/DTD/svg11.dtd">
<svg height="229.365pt" version="1.1" viewBox="0 0 178.875 229.365" width="178.875pt" xmlns="http://www.w3.org/2000/svg" xmlns:xlink="http://www.w3.org/1999/xlink">
 <metadata>
  <rdf:RDF xmlns:cc="http://creativecommons.org/ns#" xmlns:dc="http://purl.org/dc/elements/1.1/" xmlns:rdf="http://www.w3.org/1999/02/22-rdf-syntax-ns#">
   <cc:Work>
    <dc:type rdf:resource="http://purl.org/dc/dcmitype/StillImage"/>
    <dc:date>2024-04-10T01:48:17.336940</dc:date>
    <dc:format>image/svg+xml</dc:format>
    <dc:creator>
     <cc:Agent>
      <dc:title>Matplotlib v3.4.2, https://matplotlib.org/</dc:title>
     </cc:Agent>
    </dc:creator>
   </cc:Work>
  </rdf:RDF>
 </metadata>
 <defs>
  <style type="text/css">*{stroke-linecap:butt;stroke-linejoin:round;}</style>
 </defs>
 <g id="figure_1">
  <g id="patch_1">
   <path d="M 0 229.365 
L 178.875 229.365 
L 178.875 0 
L 0 0 
z
" style="fill:none;"/>
  </g>
  <g id="axes_1">
   <g id="patch_2">
    <path clip-path="url(#p1df073e230)" d="M 43.155 168.615 
C 47.212607 168.615 51.104572 167.002895 53.973734 164.133734 
C 56.842895 161.264572 58.455 157.372607 58.455 153.315 
C 58.455 149.257393 56.842895 145.365428 53.973734 142.496266 
C 51.104572 139.627105 47.212607 138.015 43.155 138.015 
C 39.097393 138.015 35.205428 139.627105 32.336266 142.496266 
C 29.467105 145.365428 27.855 149.257393 27.855 153.315 
C 27.855 157.372607 29.467105 161.264572 32.336266 164.133734 
C 35.205428 167.002895 39.097393 168.615 43.155 168.615 
z
" style="fill:none;stroke:#000000;stroke-linejoin:miter;stroke-width:2;"/>
   </g>
   <g id="patch_3">
    <path clip-path="url(#p1df073e230)" d="M 99.765 58.455 
C 103.822607 58.455 107.714572 56.842895 110.583734 53.973734 
C 113.452895 51.104572 115.065 47.212607 115.065 43.155 
C 115.065 39.097393 113.452895 35.205428 110.583734 32.336266 
C 107.714572 29.467105 103.822607 27.855 99.765 27.855 
C 95.707393 27.855 91.815428 29.467105 88.946266 32.336266 
C 86.077105 35.205428 84.465 39.097393 84.465 43.155 
C 84.465 47.212607 86.077105 51.104572 88.946266 53.973734 
C 91.815428 56.842895 95.707393 58.455 99.765 58.455 
z
" style="fill:none;stroke:#000000;stroke-linejoin:miter;stroke-width:2;"/>
   </g>
   <g id="patch_4">
    <path clip-path="url(#p1df073e230)" d="M 43.155 151.02 
L 50.805 153.315 
L 43.155 155.61 
z
"/>
   </g>
   <g id="patch_5">
    <path clip-path="url(#p1df073e230)" d="M 102.06 43.155 
L 99.765 50.805 
L 97.47 43.155 
z
"/>
   </g>
   <g id="line2d_1">
    <path clip-path="url(#p1df073e230)" d="M 99.765 199.215 
L 99.765 211.455 
L 92.115 211.455 
L 99.765 219.105 
L 107.415 211.455 
L 99.765 211.455 
" style="fill:none;stroke:#000000;stroke-linecap:round;stroke-width:2;"/>
   </g>
   <g id="line2d_2">
    <path clip-path="url(#p1df073e230)" d="M 84.465 153.315 
L 84.465 130.365 
L 99.765 141.84 
L 99.765 107.415 
M 84.465 153.315 
L 84.465 176.265 
L 99.765 164.79 
L 99.765 199.215 
M 84.465 153.315 
L 61.515 153.315 
M 84.465 153.315 
L 76.815 145.665 
M 84.465 153.315 
L 76.815 160.965 
" style="fill:none;stroke:#000000;stroke-linecap:round;stroke-width:2;"/>
   </g>
   <g id="line2d_3">
    <path clip-path="url(#p1df073e230)" d="M 61.515 153.315 
L 59.985 153.315 
L 58.455 153.315 
" style="fill:none;stroke:#000000;stroke-linecap:round;stroke-width:2;"/>
   </g>
   <g id="line2d_4">
    <path clip-path="url(#p1df073e230)" d="M 58.455 153.315 
L 58.455 153.315 
M 27.855 153.315 
L 27.855 153.315 
" style="fill:none;stroke:#000000;stroke-linecap:round;stroke-width:2;"/>
   </g>
   <g id="line2d_5">
    <path clip-path="url(#p1df073e230)" d="M 43.155 153.315 
L 35.505 153.315 
" style="fill:none;stroke:#000000;stroke-linecap:round;stroke-width:2;"/>
   </g>
   <g id="line2d_6">
    <path clip-path="url(#p1df073e230)" d="M 27.855 153.315 
L 20.205 153.315 
L 12.555 153.315 
" style="fill:none;stroke:#000000;stroke-linecap:round;stroke-width:2;"/>
   </g>
   <g id="line2d_7">
    <path clip-path="url(#p1df073e230)" d="M 99.765 107.415 
L 99.765 105.885 
L 99.765 104.355 
" style="fill:none;stroke:#000000;stroke-linecap:round;stroke-width:2;"/>
   </g>
   <g id="line2d_8">
    <path clip-path="url(#p1df073e230)" d="M 99.765 104.355 
L 107.415 104.355 
L 115.065 104.355 
" style="fill:none;stroke:#000000;stroke-linecap:round;stroke-width:2;"/>
   </g>
   <g id="line2d_9">
    <path clip-path="url(#p1df073e230)" d="M 115.065 104.355 
L 117.615 96.705 
L 122.715 112.005 
L 127.815 96.705 
L 132.915 112.005 
L 138.015 96.705 
L 143.115 112.005 
L 145.665 104.355 
" style="fill:none;stroke:#000000;stroke-linecap:round;stroke-width:2;"/>
   </g>
   <g id="line2d_10">
    <path clip-path="url(#p1df073e230)" d="M 145.665 104.355 
L 153.315 104.355 
L 160.965 104.355 
" style="fill:none;stroke:#000000;stroke-linecap:round;stroke-width:2;"/>
   </g>
   <g id="line2d_11">
    <path clip-path="url(#p1df073e230)" d="M 160.965 104.355 
L 160.965 112.005 
L 160.965 119.655 
" style="fill:none;stroke:#000000;stroke-linecap:round;stroke-width:2;"/>
   </g>
   <g id="line2d_12">
    <path clip-path="url(#p1df073e230)" d="M 160.965 119.655 
L 160.965 131.895 
L 153.315 131.895 
L 160.965 139.545 
L 168.615 131.895 
L 160.965 131.895 
" style="fill:none;stroke:#000000;stroke-linecap:round;stroke-width:2;"/>
   </g>
   <g id="line2d_13">
    <path clip-path="url(#p1df073e230)" d="M 99.765 104.355 
L 99.765 81.405 
L 99.765 58.455 
" style="fill:none;stroke:#000000;stroke-linecap:round;stroke-width:2;"/>
   </g>
   <g id="line2d_14">
    <path clip-path="url(#p1df073e230)" d="M 99.765 58.455 
L 99.765 58.455 
M 99.765 27.855 
L 99.765 27.855 
" style="fill:none;stroke:#000000;stroke-linecap:round;stroke-width:2;"/>
   </g>
   <g id="line2d_15">
    <path clip-path="url(#p1df073e230)" d="M 99.765 43.155 
L 99.765 35.505 
" style="fill:none;stroke:#000000;stroke-linecap:round;stroke-width:2;"/>
   </g>
   <g id="line2d_16">
    <path clip-path="url(#p1df073e230)" d="M 99.765 27.855 
L 99.765 20.205 
L 99.765 12.555 
" style="fill:none;stroke:#000000;stroke-linecap:round;stroke-width:2;"/>
   </g>
   <g id="text_1">
    <g clip-path="url(#p1df073e230)">
     <!-- $I_{gate}$ -->
     <g transform="translate(23.5775 128.6)scale(0.205 -0.205)">
      <defs>
       <path d="M 1081 4666 
L 1716 4666 
L 806 0 
L 172 0 
L 1081 4666 
z
" id="DejaVuSans-Oblique-49" transform="scale(0.015625)"/>
       <path d="M 3816 3500 
L 3219 434 
Q 3047 -456 2561 -893 
Q 2075 -1331 1253 -1331 
Q 950 -1331 690 -1286 
Q 431 -1241 206 -1147 
L 313 -588 
Q 525 -725 762 -790 
Q 1000 -856 1269 -856 
Q 1816 -856 2167 -557 
Q 2519 -259 2631 300 
L 2681 563 
Q 2441 288 2122 144 
Q 1803 0 1434 0 
Q 903 0 598 351 
Q 294 703 294 1319 
Q 294 1803 478 2267 
Q 663 2731 997 3091 
Q 1219 3328 1514 3456 
Q 1809 3584 2131 3584 
Q 2484 3584 2746 3420 
Q 3009 3256 3138 2956 
L 3238 3500 
L 3816 3500 
z
M 2950 2216 
Q 2950 2641 2750 2872 
Q 2550 3103 2181 3103 
Q 1953 3103 1747 3012 
Q 1541 2922 1394 2759 
Q 1156 2491 1023 2127 
Q 891 1763 891 1375 
Q 891 944 1092 712 
Q 1294 481 1672 481 
Q 2219 481 2584 976 
Q 2950 1472 2950 2216 
z
" id="DejaVuSans-Oblique-67" transform="scale(0.015625)"/>
       <path d="M 3438 1997 
L 3047 0 
L 2472 0 
L 2578 531 
Q 2325 219 2001 64 
Q 1678 -91 1281 -91 
Q 834 -91 548 182 
Q 263 456 263 884 
Q 263 1497 752 1853 
Q 1241 2209 2100 2209 
L 2900 2209 
L 2931 2363 
Q 2938 2388 2941 2417 
Q 2944 2447 2944 2509 
Q 2944 2788 2717 2942 
Q 2491 3097 2081 3097 
Q 1800 3097 1504 3025 
Q 1209 2953 897 2809 
L 997 3341 
Q 1322 3463 1633 3523 
Q 1944 3584 2234 3584 
Q 2853 3584 3176 3315 
Q 3500 3047 3500 2534 
Q 3500 2431 3484 2292 
Q 3469 2153 3438 1997 
z
M 2816 1759 
L 2241 1759 
Q 1534 1759 1195 1570 
Q 856 1381 856 984 
Q 856 709 1029 553 
Q 1203 397 1509 397 
Q 1978 397 2328 733 
Q 2678 1069 2791 1631 
L 2816 1759 
z
" id="DejaVuSans-Oblique-61" transform="scale(0.015625)"/>
       <path d="M 2706 3500 
L 2619 3053 
L 1472 3053 
L 1100 1153 
Q 1081 1047 1072 975 
Q 1063 903 1063 863 
Q 1063 663 1183 572 
Q 1303 481 1569 481 
L 2150 481 
L 2053 0 
L 1503 0 
Q 991 0 739 200 
Q 488 400 488 806 
Q 488 878 497 964 
Q 506 1050 525 1153 
L 897 3053 
L 409 3053 
L 500 3500 
L 978 3500 
L 1172 4494 
L 1747 4494 
L 1556 3500 
L 2706 3500 
z
" id="DejaVuSans-Oblique-74" transform="scale(0.015625)"/>
       <path d="M 3078 2063 
Q 3088 2113 3092 2166 
Q 3097 2219 3097 2272 
Q 3097 2653 2873 2875 
Q 2650 3097 2266 3097 
Q 1838 3097 1509 2826 
Q 1181 2556 1013 2059 
L 3078 2063 
z
M 3578 1613 
L 903 1613 
Q 884 1494 878 1425 
Q 872 1356 872 1306 
Q 872 872 1139 634 
Q 1406 397 1894 397 
Q 2269 397 2603 481 
Q 2938 566 3225 728 
L 3116 159 
Q 2806 34 2476 -28 
Q 2147 -91 1806 -91 
Q 1078 -91 686 257 
Q 294 606 294 1247 
Q 294 1794 489 2264 
Q 684 2734 1063 3103 
Q 1306 3334 1642 3459 
Q 1978 3584 2356 3584 
Q 2950 3584 3301 3228 
Q 3653 2872 3653 2272 
Q 3653 2128 3634 1964 
Q 3616 1800 3578 1613 
z
" id="DejaVuSans-Oblique-65" transform="scale(0.015625)"/>
      </defs>
      <use transform="translate(0 0.09375)" xlink:href="#DejaVuSans-Oblique-49"/>
      <use transform="translate(29.492188 -16.3125)scale(0.7)" xlink:href="#DejaVuSans-Oblique-67"/>
      <use transform="translate(73.925781 -16.3125)scale(0.7)" xlink:href="#DejaVuSans-Oblique-61"/>
      <use transform="translate(116.821289 -16.3125)scale(0.7)" xlink:href="#DejaVuSans-Oblique-74"/>
      <use transform="translate(144.267578 -16.3125)scale(0.7)" xlink:href="#DejaVuSans-Oblique-65"/>
     </g>
    </g>
   </g>
   <g id="text_2">
    <g clip-path="url(#p1df073e230)">
     <!-- V$_{ch}$ -->
     <g transform="translate(71.13 108.907969)scale(0.165 -0.165)">
      <defs>
       <path d="M 1831 0 
L 50 4666 
L 709 4666 
L 2188 738 
L 3669 4666 
L 4325 4666 
L 2547 0 
L 1831 0 
z
" id="DejaVuSans-56" transform="scale(0.015625)"/>
       <path d="M 3431 3366 
L 3316 2797 
Q 3109 2947 2876 3022 
Q 2644 3097 2394 3097 
Q 2119 3097 1870 3000 
Q 1622 2903 1453 2725 
Q 1184 2453 1037 2087 
Q 891 1722 891 1331 
Q 891 859 1127 628 
Q 1363 397 1844 397 
Q 2081 397 2348 469 
Q 2616 541 2906 684 
L 2797 116 
Q 2547 13 2283 -39 
Q 2019 -91 1741 -91 
Q 1044 -91 669 257 
Q 294 606 294 1253 
Q 294 1797 489 2255 
Q 684 2713 1069 3078 
Q 1331 3328 1684 3456 
Q 2038 3584 2456 3584 
Q 2700 3584 2940 3529 
Q 3181 3475 3431 3366 
z
" id="DejaVuSans-Oblique-63" transform="scale(0.015625)"/>
       <path d="M 3566 2113 
L 3156 0 
L 2578 0 
L 2988 2091 
Q 3016 2238 3031 2350 
Q 3047 2463 3047 2528 
Q 3047 2791 2881 2937 
Q 2716 3084 2419 3084 
Q 1956 3084 1617 2771 
Q 1278 2459 1178 1941 
L 800 0 
L 225 0 
L 1172 4863 
L 1747 4863 
L 1375 2950 
Q 1594 3244 1934 3414 
Q 2275 3584 2650 3584 
Q 3113 3584 3367 3334 
Q 3622 3084 3622 2631 
Q 3622 2519 3608 2391 
Q 3594 2263 3566 2113 
z
" id="DejaVuSans-Oblique-68" transform="scale(0.015625)"/>
      </defs>
      <use transform="translate(0 0.09375)" xlink:href="#DejaVuSans-56"/>
      <use transform="translate(69.365234 -16.3125)scale(0.7)" xlink:href="#DejaVuSans-Oblique-63"/>
      <use transform="translate(107.851562 -16.3125)scale(0.7)" xlink:href="#DejaVuSans-Oblique-68"/>
     </g>
    </g>
   </g>
   <g id="text_3">
    <g clip-path="url(#p1df073e230)">
     <!-- 100kΩ -->
     <g transform="translate(103.535742 90.213516)scale(0.165 -0.165)">
      <defs>
       <path d="M 794 531 
L 1825 531 
L 1825 4091 
L 703 3866 
L 703 4441 
L 1819 4666 
L 2450 4666 
L 2450 531 
L 3481 531 
L 3481 0 
L 794 0 
L 794 531 
z
" id="DejaVuSans-31" transform="scale(0.015625)"/>
       <path d="M 2034 4250 
Q 1547 4250 1301 3770 
Q 1056 3291 1056 2328 
Q 1056 1369 1301 889 
Q 1547 409 2034 409 
Q 2525 409 2770 889 
Q 3016 1369 3016 2328 
Q 3016 3291 2770 3770 
Q 2525 4250 2034 4250 
z
M 2034 4750 
Q 2819 4750 3233 4129 
Q 3647 3509 3647 2328 
Q 3647 1150 3233 529 
Q 2819 -91 2034 -91 
Q 1250 -91 836 529 
Q 422 1150 422 2328 
Q 422 3509 836 4129 
Q 1250 4750 2034 4750 
z
" id="DejaVuSans-30" transform="scale(0.015625)"/>
       <path d="M 581 4863 
L 1159 4863 
L 1159 1991 
L 2875 3500 
L 3609 3500 
L 1753 1863 
L 3688 0 
L 2938 0 
L 1159 1709 
L 1159 0 
L 581 0 
L 581 4863 
z
" id="DejaVuSans-6b" transform="scale(0.015625)"/>
       <path d="M 4647 556 
L 4647 0 
L 2772 0 
L 2772 556 
Q 3325 859 3634 1378 
Q 3944 1897 3944 2528 
Q 3944 3278 3531 3731 
Q 3119 4184 2444 4184 
Q 1769 4184 1355 3729 
Q 941 3275 941 2528 
Q 941 1897 1250 1378 
Q 1563 859 2119 556 
L 2119 0 
L 244 0 
L 244 556 
L 1241 556 
Q 747 991 519 1456 
Q 294 1922 294 2497 
Q 294 3491 894 4106 
Q 1491 4722 2444 4722 
Q 3391 4722 3994 4106 
Q 4594 3494 4594 2528 
Q 4594 1922 4372 1459 
Q 4150 997 3647 556 
L 4647 556 
z
" id="DejaVuSans-3a9" transform="scale(0.015625)"/>
      </defs>
      <use xlink:href="#DejaVuSans-31"/>
      <use x="63.623047" xlink:href="#DejaVuSans-30"/>
      <use x="127.246094" xlink:href="#DejaVuSans-30"/>
      <use x="190.869141" xlink:href="#DejaVuSans-6b"/>
      <use x="248.779297" xlink:href="#DejaVuSans-3a9"/>
     </g>
    </g>
   </g>
   <g id="text_4">
    <g clip-path="url(#p1df073e230)">
     <!-- $I_{bias}$ -->
     <g transform="translate(45.325 48.811719)scale(0.205 -0.205)">
      <defs>
       <path d="M 3169 2138 
Q 3169 2591 2961 2847 
Q 2753 3103 2388 3103 
Q 2122 3103 1889 2973 
Q 1656 2844 1484 2597 
Q 1303 2338 1198 1995 
Q 1094 1653 1094 1313 
Q 1094 881 1298 636 
Q 1503 391 1863 391 
Q 2134 391 2365 517 
Q 2597 644 2772 891 
Q 2950 1147 3059 1487 
Q 3169 1828 3169 2138 
z
M 1381 2969 
Q 1594 3256 1914 3420 
Q 2234 3584 2584 3584 
Q 3122 3584 3439 3221 
Q 3756 2859 3756 2241 
Q 3756 1734 3570 1259 
Q 3384 784 3041 416 
Q 2816 172 2522 40 
Q 2228 -91 1906 -91 
Q 1566 -91 1316 65 
Q 1066 222 909 531 
L 806 0 
L 231 0 
L 1178 4863 
L 1753 4863 
L 1381 2969 
z
" id="DejaVuSans-Oblique-62" transform="scale(0.015625)"/>
       <path d="M 1172 4863 
L 1747 4863 
L 1606 4134 
L 1031 4134 
L 1172 4863 
z
M 909 3500 
L 1484 3500 
L 800 0 
L 225 0 
L 909 3500 
z
" id="DejaVuSans-Oblique-69" transform="scale(0.015625)"/>
       <path d="M 3200 3397 
L 3091 2853 
Q 2863 2978 2609 3040 
Q 2356 3103 2088 3103 
Q 1634 3103 1373 2948 
Q 1113 2794 1113 2528 
Q 1113 2219 1719 2053 
Q 1766 2041 1788 2034 
L 1972 1978 
Q 2547 1819 2739 1644 
Q 2931 1469 2931 1166 
Q 2931 609 2489 259 
Q 2047 -91 1331 -91 
Q 1053 -91 747 -37 
Q 441 16 72 128 
L 184 722 
Q 500 559 806 475 
Q 1113 391 1394 391 
Q 1816 391 2080 572 
Q 2344 753 2344 1031 
Q 2344 1331 1650 1516 
L 1591 1531 
L 1394 1581 
Q 956 1697 753 1886 
Q 550 2075 550 2369 
Q 550 2928 970 3256 
Q 1391 3584 2113 3584 
Q 2397 3584 2667 3537 
Q 2938 3491 3200 3397 
z
" id="DejaVuSans-Oblique-73" transform="scale(0.015625)"/>
      </defs>
      <use transform="translate(0 0.09375)" xlink:href="#DejaVuSans-Oblique-49"/>
      <use transform="translate(29.492188 -16.3125)scale(0.7)" xlink:href="#DejaVuSans-Oblique-62"/>
      <use transform="translate(73.925781 -16.3125)scale(0.7)" xlink:href="#DejaVuSans-Oblique-69"/>
      <use transform="translate(93.374023 -16.3125)scale(0.7)" xlink:href="#DejaVuSans-Oblique-61"/>
      <use transform="translate(136.269531 -16.3125)scale(0.7)" xlink:href="#DejaVuSans-Oblique-73"/>
     </g>
    </g>
   </g>
   <g id="patch_6">
    <path clip-path="url(#p1df073e230)" d="M 12.555 155.61 
C 13.163641 155.61 13.747436 155.368184 14.17781 154.93781 
C 14.608184 154.507436 14.85 153.923641 14.85 153.315 
C 14.85 152.706359 14.608184 152.122564 14.17781 151.69219 
C 13.747436 151.261816 13.163641 151.02 12.555 151.02 
C 11.946359 151.02 11.362564 151.261816 10.93219 151.69219 
C 10.501816 152.122564 10.26 152.706359 10.26 153.315 
C 10.26 153.923641 10.501816 154.507436 10.93219 154.93781 
C 11.362564 155.368184 11.946359 155.61 12.555 155.61 
z
" style="fill:#ffffff;stroke:#000000;stroke-linejoin:miter;stroke-width:2;"/>
   </g>
   <g id="patch_7">
    <path clip-path="url(#p1df073e230)" d="M 99.765 14.85 
C 100.373641 14.85 100.957436 14.608184 101.38781 14.17781 
C 101.818184 13.747436 102.06 13.163641 102.06 12.555 
C 102.06 11.946359 101.818184 11.362564 101.38781 10.93219 
C 100.957436 10.501816 100.373641 10.26 99.765 10.26 
C 99.156359 10.26 98.572564 10.501816 98.14219 10.93219 
C 97.711816 11.362564 97.47 11.946359 97.47 12.555 
C 97.47 13.163641 97.711816 13.747436 98.14219 14.17781 
C 98.572564 14.608184 99.156359 14.85 99.765 14.85 
z
" style="fill:#ffffff;stroke:#000000;stroke-linejoin:miter;stroke-width:2;"/>
   </g>
  </g>
 </g>
 <defs>
  <clipPath id="p1df073e230">
   <rect height="214.965" width="164.475" x="7.2" y="7.2"/>
  </clipPath>
 </defs>
</svg>
